<svg xmlns="http://www.w3.org/2000/svg" width="34" height="34" viewBox="0 0 34 34" fill="none">
  <path d="M14.3501 26.2822C15.1369 26.3928 15.9475 26.4502 16.7749 26.4502C24.3139 26.4502 30.4249 21.6314 30.4249 15.6884C30.4249 9.74399 24.3139 4.92519 16.7749 4.92519C9.23585 4.92519 3.12485 9.74399 3.12485 15.6884C3.12485 19.53 5.67985 22.9026 9.52285 24.8066L9.4958 24.9001C9.2312 25.8143 8.17718 29.4563 8.13405 29.7528C8.13405 29.7528 8.10745 29.9852 8.25725 30.0734C8.40705 30.1616 8.58205 30.093 8.58205 30.093C9.01185 30.0328 13.5633 26.8366 14.3501 26.2822Z" fill="#3D1200"/>
  <path d="M13.8886 14.4365L13.1018 16.6709H14.674L13.8886 14.4365Z" fill="#3D1200"/>
</svg>