<svg version="1.2" xmlns="http://www.w3.org/2000/svg" viewBox="0 0 64 64" width="64" height="64">
	<title>pin-active-svg</title>
	<defs>
		<filter x="-50%" y="-50%" width="200%" height="200%" id="f1" ><feDropShadow dx="0" dy="0" stdDeviation="0" flood-color="#ffffdf" flood-opacity=".9"/></filter>
		<filter x="-50%" y="-50%" width="200%" height="200%" id="f2" ><feDropShadow dx="0" dy="0" stdDeviation="5.416666666666667" flood-color="#000000" flood-opacity=".6"/></filter>
	</defs>
	<style>
		.s0 { fill: #f29992 } 
		.s1 { filter: url(#f1) url(#f2);fill: #fdfd96 } 
	</style>
	<path fill-rule="evenodd" class="s0" d="m39.2 9.4c2.3 1 4.4 2.4 6.1 4.1 1.8 1.8 3.2 3.9 4.1 6.1 1 2.3 1.5 4.8 1.5 7.3 0 12.8-15.4 29.1-18.9 29.1-3.5 0-18.9-16.7-18.9-29.1 0-2.5 0.5-5 1.5-7.3 0.9-2.2 2.3-4.3 4.1-6.1 1.7-1.7 3.8-3.1 6.1-4.1 2.3-0.9 4.7-1.4 7.2-1.4 2.5 0 4.9 0.5 7.2 1.4zm-2.1 30.6c1.6-0.7 3.1-1.7 4.3-2.9 1.3-1.3 2.3-2.8 2.9-4.4 0.7-1.6 1-3.4 1-5.1 0-5.5-3.2-10.4-8.2-12.5-5.1-2-10.8-0.9-14.7 3-3.8 3.8-5 9.6-2.9 14.6 2.1 5 7 8.3 12.4 8.3 1.8 0 3.5-0.3 5.2-1z"/>
	<path class="s1" d="m32 14l4.1 8.2 9 1.3-6.5 6.3 1.5 9-8.1-4.2-8 4.2 1.5-9-6.5-6.3 9-1.3z"/>
</svg>