<svg width="720" height="720" viewBox="0 0 720 720" fill="none" xmlns="http://www.w3.org/2000/svg">
<path d="M170 264.655V425.346L50.0001 467.495L50.0001 222.506L170 264.655Z" fill="url(#paint0_linear_31_784)"/>
<path fill-rule="evenodd" clip-rule="evenodd" d="M170 264.655V261.043L50.0001 217V222.506L170 264.655ZM170 425.346L50.0001 467.495V473L170 428.957V425.346Z" fill="url(#paint1_linear_31_784)" fill-opacity="0.85"/>
<path d="M391.27 546.173L530.434 465.827L626.935 548.675L414.768 671.17L391.27 546.173Z" fill="url(#paint2_linear_31_784)"/>
<path fill-rule="evenodd" clip-rule="evenodd" d="M533.56 464.022L388.142 547.978L410 673.923L414.768 671.17L391.27 546.173L530.434 465.827L626.935 548.675L631.702 545.923L533.56 464.022Z" fill="url(#paint3_linear_31_784)" fill-opacity="0.85"/>
<path d="M195.27 468.828L334.434 549.174L310.936 674.171L98.7686 551.676L195.27 468.828Z" fill="url(#paint4_linear_31_784)"/>
<path fill-rule="evenodd" clip-rule="evenodd" d="M337.56 550.978L192.142 467.022L94.0001 548.923L98.7686 551.676L195.27 468.828L334.434 549.173L310.936 674.171L315.703 676.923L337.56 550.978Z" fill="url(#paint5_linear_31_784)" fill-opacity="0.85"/>
<path d="M550 424.345L550 263.653L670 221.505L670 466.494L550 424.345Z" fill="url(#paint6_linear_31_784)"/>
<path fill-rule="evenodd" clip-rule="evenodd" d="M550 260.043L550 427.957L670 472V466.494L550.001 424.345L550.001 263.654L670 221.505V216L550 260.043Z" fill="url(#paint7_linear_31_784)" fill-opacity="0.85"/>
<path d="M328.432 143.75L189.269 224.096L92.7674 141.248L304.934 18.7529L328.432 143.75Z" fill="url(#paint8_linear_31_784)"/>
<path fill-rule="evenodd" clip-rule="evenodd" d="M186.143 225.902L331.56 141.945L309.703 16.0006L304.934 18.7536L328.432 143.75L189.269 224.096L92.7679 141.248L88.0004 144.001L186.143 225.902Z" fill="url(#paint9_linear_31_784)" fill-opacity="0.85"/>
<path d="M531.433 224.095L392.269 143.75L415.767 18.7525L627.934 141.247L531.433 224.095Z" fill="url(#paint10_linear_31_784)"/>
<path fill-rule="evenodd" clip-rule="evenodd" d="M389.143 141.945L534.56 225.902L632.702 144L627.934 141.247L531.433 224.095L392.269 143.75L415.767 18.7529L411 16.0004L389.143 141.945Z" fill="url(#paint11_linear_31_784)" fill-opacity="0.85"/>
<path d="M450 486.324C450 484.667 448.656 483.324 447 483.324H273C271.343 483.324 270 484.667 270 486.324V695.417C270 698.178 273.413 699.473 275.245 697.407L357.754 604.319C358.948 602.972 361.051 602.972 362.245 604.319L444.754 697.407C446.586 699.473 450 698.178 450 695.417V486.324Z" fill="#2B62AB"/>
<path fill-rule="evenodd" clip-rule="evenodd" d="M320 483.324V646.914L357.754 604.319C358.948 602.972 361.051 602.972 362.245 604.319L400 646.914V483.324H320Z" fill="url(#paint12_linear_31_784)"/>
<path d="M339.999 135.87C352.375 128.725 367.623 128.725 379.999 135.87L530.525 222.776C542.901 229.922 550.525 243.127 550.525 257.417V431.229C550.525 445.52 542.901 458.725 530.525 465.87L379.999 552.776C367.623 559.922 352.375 559.922 339.999 552.776L189.473 465.87C177.097 458.725 169.473 445.52 169.473 431.229V257.417C169.473 243.127 177.097 229.922 189.473 222.776L339.999 135.87Z" fill="url(#paint13_linear_31_784)"/>
<path d="M340.499 153.87C352.875 146.725 368.123 146.725 380.499 153.87L515.869 232.026C528.245 239.172 535.869 252.377 535.869 266.667V422.979C535.869 437.27 528.245 450.475 515.869 457.62L380.499 535.776C368.123 542.922 352.875 542.922 340.499 535.776L205.129 457.62C192.753 450.475 185.129 437.27 185.129 422.979V266.667C185.129 252.377 192.753 239.172 205.129 232.026L340.499 153.87Z" fill="url(#paint14_linear_31_784)"/>
<path d="M339.803 164.137C352.278 156.84 367.72 156.84 380.195 164.137L504.74 236.99C517.005 244.164 524.544 257.307 524.544 271.516V418.131C524.544 432.34 517.005 445.483 504.74 452.658L380.195 525.51C367.72 532.807 352.278 532.807 339.803 525.51L215.258 452.658C202.993 445.483 195.454 432.34 195.454 418.131V271.516C195.454 257.307 202.993 244.164 215.258 236.99L339.803 164.137Z" fill="url(#paint15_linear_31_784)"/>
<rect x="255.912" y="184.323" width="100" height="381.074" transform="rotate(-30 255.912 184.323)" fill="white" fill-opacity="0.18"/>
<rect x="210.999" y="210.259" width="20" height="381.07" transform="rotate(-30 210.999 210.259)" fill="white" fill-opacity="0.18"/>
<g filter="url(#filter0_i_31_784)">
<path d="M339.999 230.871C352.375 223.726 367.623 223.726 379.999 230.871L448.252 270.277C460.628 277.422 468.252 290.627 468.252 304.918V383.73C468.252 398.021 460.628 411.226 448.252 418.371L379.999 457.777C367.623 464.922 352.375 464.922 339.999 457.777L271.746 418.371C259.37 411.226 251.746 398.021 251.746 383.73V304.918C251.746 290.627 259.37 277.422 271.746 270.277L339.999 230.871Z" fill="url(#paint16_linear_31_784)"/>
</g>
<path d="M357.146 289.105C358.044 286.342 361.955 286.342 362.853 289.105L373.695 322.474C374.096 323.71 375.248 324.547 376.548 324.547H411.634C414.54 324.547 415.749 328.266 413.397 329.974L385.012 350.597C383.961 351.361 383.521 352.715 383.922 353.951L394.765 387.32C395.663 390.084 392.499 392.383 390.148 390.674L361.763 370.051C360.711 369.287 359.288 369.287 358.236 370.051L329.851 390.674C327.5 392.383 324.336 390.084 325.234 387.32L336.077 353.951C336.478 352.715 336.038 351.361 334.987 350.597L306.602 329.974C304.25 328.266 305.459 324.547 308.365 324.547H343.451C344.751 324.547 345.903 323.71 346.304 322.474L357.146 289.105Z" fill="url(#paint17_linear_31_784)"/>
<path d="M219.032 406.497C219.303 405.518 220.691 405.52 220.96 406.499L224.374 418.946C224.454 419.237 224.661 419.477 224.937 419.598L232.906 423.084C233.705 423.433 233.705 424.567 232.906 424.916L224.937 428.402C224.661 428.523 224.454 428.763 224.374 429.054L220.96 441.501C220.691 442.48 219.303 442.482 219.032 441.503L215.584 429.051C215.504 428.762 215.298 428.524 215.023 428.403L207.084 424.916C206.287 424.565 206.287 423.435 207.084 423.084L215.023 419.597C215.298 419.476 215.504 419.238 215.584 418.949L219.032 406.497Z" fill="white"/>
<path d="M517.533 508.421C517.808 507.449 519.186 507.45 519.459 508.423L523.621 523.289C523.703 523.581 523.912 523.819 524.19 523.939L533.855 528.081C534.664 528.427 534.664 529.573 533.855 529.919L524.19 534.061C523.912 534.181 523.703 534.419 523.621 534.711L519.459 549.577C519.186 550.55 517.808 550.551 517.533 549.579L513.33 534.708C513.248 534.418 513.04 534.181 512.763 534.062L503.135 529.919C502.328 529.572 502.328 528.428 503.135 528.081L512.763 523.938C513.04 523.819 513.248 523.582 513.33 523.292L517.533 508.421Z" fill="white"/>
<circle cx="461.5" cy="239.5" r="11.5" fill="white"/>
<circle cx="187" cy="491" r="8" fill="white"/>
<circle cx="510.5" cy="180.5" r="7.5" fill="white"/>
<defs>
<filter id="filter0_i_31_784" x="251.746" y="225.512" width="226.506" height="247.624" filterUnits="userSpaceOnUse" color-interpolation-filters="sRGB">
<feFlood flood-opacity="0" result="BackgroundImageFix"/>
<feBlend mode="normal" in="SourceGraphic" in2="BackgroundImageFix" result="shape"/>
<feColorMatrix in="SourceAlpha" type="matrix" values="0 0 0 0 0 0 0 0 0 0 0 0 0 0 0 0 0 0 127 0" result="hardAlpha"/>
<feOffset dx="15" dy="15"/>
<feGaussianBlur stdDeviation="5"/>
<feComposite in2="hardAlpha" operator="arithmetic" k2="-1" k3="1"/>
<feColorMatrix type="matrix" values="0 0 0 0 0 0 0 0 0 0 0 0 0 0 0 0 0 0 0.25 0"/>
<feBlend mode="normal" in2="shape" result="effect1_innerShadow_31_784"/>
</filter>
<linearGradient id="paint0_linear_31_784" x1="170" y1="345" x2="15.9877" y2="347.31" gradientUnits="userSpaceOnUse">
<stop stop-color="#7E7E7E" stop-opacity="0.3"/>
<stop offset="0.7" stop-opacity="0"/>
</linearGradient>
<linearGradient id="paint1_linear_31_784" x1="170" y1="345" x2="50.0001" y2="345" gradientUnits="userSpaceOnUse">
<stop stop-color="#7E7E7E" stop-opacity="0.3"/>
<stop offset="0.7" stop-opacity="0"/>
</linearGradient>
<linearGradient id="paint2_linear_31_784" x1="460.852" y1="506" x2="539.858" y2="638.223" gradientUnits="userSpaceOnUse">
<stop stop-color="#7E7E7E" stop-opacity="0.3"/>
<stop offset="0.7" stop-opacity="0"/>
</linearGradient>
<linearGradient id="paint3_linear_31_784" x1="460.851" y1="506" x2="520.851" y2="609.923" gradientUnits="userSpaceOnUse">
<stop stop-color="#7E7E7E" stop-opacity="0.3"/>
<stop offset="0.7" stop-opacity="0"/>
</linearGradient>
<linearGradient id="paint4_linear_31_784" x1="264.852" y1="509.001" x2="189.846" y2="643.534" gradientUnits="userSpaceOnUse">
<stop stop-color="#7E7E7E" stop-opacity="0.3"/>
<stop offset="0.7" stop-opacity="0"/>
</linearGradient>
<linearGradient id="paint5_linear_31_784" x1="264.851" y1="509" x2="204.851" y2="612.923" gradientUnits="userSpaceOnUse">
<stop stop-color="#7E7E7E" stop-opacity="0.3"/>
<stop offset="0.7" stop-opacity="0"/>
</linearGradient>
<linearGradient id="paint6_linear_31_784" x1="550" y1="343.999" x2="704.012" y2="341.689" gradientUnits="userSpaceOnUse">
<stop stop-color="#7E7E7E" stop-opacity="0.3"/>
<stop offset="0.7" stop-opacity="0"/>
</linearGradient>
<linearGradient id="paint7_linear_31_784" x1="550" y1="344" x2="670" y2="344" gradientUnits="userSpaceOnUse">
<stop stop-color="#7E7E7E" stop-opacity="0.3"/>
<stop offset="0.7" stop-opacity="0"/>
</linearGradient>
<linearGradient id="paint8_linear_31_784" x1="258.851" y1="183.923" x2="179.844" y2="51.6996" gradientUnits="userSpaceOnUse">
<stop stop-color="#7E7E7E" stop-opacity="0.3"/>
<stop offset="0.7" stop-opacity="0"/>
</linearGradient>
<linearGradient id="paint9_linear_31_784" x1="258.851" y1="183.923" x2="198.852" y2="80.0006" gradientUnits="userSpaceOnUse">
<stop stop-color="#7E7E7E" stop-opacity="0.3"/>
<stop offset="0.7" stop-opacity="0"/>
</linearGradient>
<linearGradient id="paint10_linear_31_784" x1="461.851" y1="183.922" x2="536.857" y2="49.3893" gradientUnits="userSpaceOnUse">
<stop stop-color="#7E7E7E" stop-opacity="0.3"/>
<stop offset="0.7" stop-opacity="0"/>
</linearGradient>
<linearGradient id="paint11_linear_31_784" x1="461.851" y1="183.923" x2="521.851" y2="80.0004" gradientUnits="userSpaceOnUse">
<stop stop-color="#7E7E7E" stop-opacity="0.3"/>
<stop offset="0.7" stop-opacity="0"/>
</linearGradient>
<linearGradient id="paint12_linear_31_784" x1="360" y1="483.324" x2="360" y2="646.914" gradientUnits="userSpaceOnUse">
<stop stop-color="white"/>
<stop offset="1" stop-color="#B2B2B2"/>
</linearGradient>
<linearGradient id="paint13_linear_31_784" x1="359.999" y1="124.323" x2="359.999" y2="564.323" gradientUnits="userSpaceOnUse">
<stop stop-color="#124991"/>
<stop offset="0.5" stop-color="#307AD9"/>
<stop offset="1" stop-color="#124990"/>
</linearGradient>
<linearGradient id="paint14_linear_31_784" x1="360.499" y1="142.323" x2="360.499" y2="547.323" gradientUnits="userSpaceOnUse">
<stop stop-color="#041327" stop-opacity="0.45"/>
<stop offset="0.5" stop-color="#295996" stop-opacity="0.71"/>
<stop offset="1" stop-color="#041327" stop-opacity="0.45"/>
</linearGradient>
<linearGradient id="paint15_linear_31_784" x1="359.999" y1="152.324" x2="359.999" y2="537.324" gradientUnits="userSpaceOnUse">
<stop stop-color="#144586"/>
<stop offset="1" stop-color="#297CE8"/>
</linearGradient>
<linearGradient id="paint16_linear_31_784" x1="282.082" y1="253.074" x2="359.999" y2="469.324" gradientUnits="userSpaceOnUse">
<stop stop-color="#153E75"/>
<stop offset="1" stop-color="#246AC7"/>
</linearGradient>
<linearGradient id="paint17_linear_31_784" x1="360" y1="280.324" x2="424" y2="414.324" gradientUnits="userSpaceOnUse">
<stop stop-color="white"/>
<stop offset="1" stop-color="#C2C2C2"/>
</linearGradient>
</defs>
</svg>
